<svg version="1.1" id="Layer_1" xmlns="http://www.w3.org/2000/svg" x="0" y="0" viewBox="0 0 257 48" style="enable-background:new 0 0 257 48" xml:space="preserve"><style>.st1{fill-rule:evenodd;clip-rule:evenodd;fill:#00bfff}.st2{fill:#81be00}.st2,.st3{fill-rule:evenodd;clip-rule:evenodd}</style><path style="fill:none" d="M0 0h256.6v48H0z"/><path class="st1" d="M14.4 41.1H40V25.9H21.9v-3H6.7v10.5c0 4.2 3.5 7.7 7.7 7.7z"/><path class="st2" d="M5.7 6.7c-3.4.8-5.7 4-5.7 7.6a8 8 0 0 0 5.7 7.6V6.7z"/><path class="st1" d="M21.9 5.7c-.8-3.4-4-5.7-7.6-5.7a8 8 0 0 0-7.6 5.7H21.9zM41.1 41.1c3.4-.8 5.7-4 5.7-7.6a8 8 0 0 0-5.7-7.6V41.1z"/><path class="st2" d="M24.9 42.1c.8 3.4 4 5.7 7.6 5.7a8 8 0 0 0 7.6-5.7H24.9zM32.4 6.7H6.7v15.1h18.1v3H40V14.4c0-4.2-3.4-7.7-7.6-7.7z"/><path class="st3" d="m53.5 17.2 3.1-1.9 3.3-5.1 1.4.2v5.4h9l-.1 3.5-8.8-.4v11.8c0 1.7.4 2.9 1.2 3.6.8.7 1.8 1.1 3 1.1 1 0 1.9-.1 2.7-.4l2.5-1.2 1.4 3c-.9.7-1.9 1.1-3 1.4-1.1.3-2.4.5-3.9.5-2.6 0-4.5-.7-5.9-2-1.4-1.4-2-3.3-2-6V19.2l-3.5-.5-.4-1.5zM92 24.8c0-2.2-.6-3.8-1.7-4.8-1.1-.9-2.8-1.4-5.2-1.4-.9 0-1.8.1-2.7.4a6.8 6.8 0 0 0-4.1 3.1 6 6 0 0 0-.8 2.7H92zM77.6 28a8 8 0 0 0 .9 3.2c.5.9 1.1 1.7 1.9 2.3.8.6 1.7 1 2.7 1.3s2 .4 3.1.4c1.6 0 3-.1 4.2-.4 1.2-.3 2.4-.7 3.6-1.4l1.2 3.4a16.5 16.5 0 0 1-4.2 1.4 138.5 138.5 0 0 1-5 .4c-2 0-3.8-.3-5.4-.8a9.4 9.4 0 0 1-3.9-2.3 9.1 9.1 0 0 1-2.4-3.7c-.6-1.4-.8-3-.8-4.8 0-1.7.3-3.3.9-4.8a10 10 0 0 1 2.6-3.7 12.8 12.8 0 0 1 8.8-3.3c1.8 0 3.4.2 4.7.7 1.3.5 2.4 1.1 3.3 1.9a7 7 0 0 1 1.9 2.9c.4 1.1.6 2.4.6 3.7l-.1 1.7-.3 1.7-18.3.2zM104.4 15.8l.3 3.6a10 10 0 0 1 3.5-3.1 10 10 0 0 1 4.3-.9c1.6 0 2.9.2 3.9.7 1 .5 2.1 1.3 3 2.5l-2.8 2.6a4.8 4.8 0 0 0-2.1-1.7c-.8-.4-1.6-.6-2.4-.6-1.7 0-3 .3-4.1 1-1.1.7-2.1 1.7-3 3v15.5h-4.2V15.8h3.6zM137.8 27.6l-6.6.4a33 33 0 0 0-4.9.9 4 4 0 0 0-.9 2.7c0 1.2.4 2.1 1.1 2.7a5 5 0 0 0 3.2.9c1.5 0 2.9-.2 4.1-.7a11 11 0 0 0 3.8-2.3l.2-4.6zm-15.2-10.3a25.3 25.3 0 0 1 9.6-2c3.3 0 5.8.6 7.4 1.8 1.6 1.2 2.4 3.2 2.4 6v9.4c0 1.1.2 1.8.5 2.2.4.4 1.1.6 2.2.6v3a4 4 0 0 1-1.4.3l-1.6.1c-.9 0-1.7-.3-2.2-1-.5-.7-.9-1.6-.9-2.7-2.1 2.5-5.2 3.7-9.3 3.7a9 9 0 0 1-6-1.8c-1.4-1.2-2-2.9-2-5 0-1 .2-1.9.5-2.8.3-.8.9-1.7 1.6-2.6l3.1-.8a104.6 104.6 0 0 1 7-1l4.4-.2v-1.3c0-1.6-.4-2.7-1.3-3.4-.9-.7-2.4-1.1-4.6-1.1-2.8 0-5.7.6-8.5 1.8l-.9-3.2zM146.3 15.8h4.3l6 18.6h.4l6-18.6h3.4l6.2 18.6h.4l5.7-18.6h4.2l-7.6 22.5h-5.4l-5-15.5h-.3l-5.1 15.5h-5.6l-7.6-22.5zM188.5 27c0 2.6.8 4.6 2.3 6.1a8.4 8.4 0 0 0 6.2 2.2c2.6 0 4.7-.7 6.2-2.2a8.2 8.2 0 0 0 2.3-6.1c0-2.6-.8-4.6-2.3-6.1a8.4 8.4 0 0 0-6.2-2.2c-2.6 0-4.7.7-6.2 2.2-1.6 1.5-2.3 3.5-2.3 6.1zm21 0a11.3 11.3 0 0 1-3.7 8.6c-1.1 1-2.4 1.8-4 2.3a15.7 15.7 0 0 1-9.8 0c-1.5-.5-2.9-1.3-4-2.3a11 11 0 0 1-3.7-8.6 11.3 11.3 0 0 1 3.7-8.6c1.2-1 2.4-1.8 4-2.3a15.7 15.7 0 0 1 9.8 0c1.5.5 2.8 1.3 4 2.3 1.1 1 2 2.3 2.7 3.7a13 13 0 0 1 1 4.9zM217.9 15.8l.3 3.6a10 10 0 0 1 3.5-3.1 10 10 0 0 1 4.3-.9c1.6 0 2.9.2 3.9.7 1.1.5 2.1 1.3 3 2.5l-2.8 2.6a4.8 4.8 0 0 0-2.1-1.7c-.8-.4-1.6-.6-2.4-.6-1.7 0-3 .3-4.1 1-1.1.7-2.1 1.7-3 3v15.5h-4.2V15.8h3.6zM239.6 5.4v19.7l3.6-2.4 7.8-7h4.9l.1.4-9.8 8.5 10.2 13.2-.1.4h-4.7L243 26.8l-3.5 1.9v9.5h-4.1V5.4h4.2z"/></svg>