<svg id="Layer_1" data-name="Layer 1" xmlns="http://www.w3.org/2000/svg" viewBox="0 0 144.5 43.7"><defs><style>.cls-1{fill:#202020}.cls-2{fill:#f2912e}</style></defs><path class="cls-1" d="M3.8 8.1A19.8 19.8 0 0 0 4.3 4a1.8 1.8 0 0 1 1.6-2h6.8c2.3 0 4.8 0 6.2 1.7A5.8 5.8 0 0 1 20 7.1a7.8 7.8 0 0 1-3.4 6.2 9 9 0 0 1-4.3 1.4c2.1.3 6 .9 6 5.5a7.3 7.3 0 0 1-1.8 4.8c-1 1.1-3 3.6-9.1 3.6a25.4 25.4 0 0 1-3-.1L2 28.4h-.5A1.6 1.6 0 0 1 0 26.3l.9-4Zm.8 14.6a12.3 12.3 0 0 0-.3 1.8c0 1.4 1.2 1.5 3 1.5 5.8 0 6.9-4 6.9-6.1 0-3.8-3.5-3.8-4.7-3.8H5.9Zm1.9-9.4h3.7a10.2 10.2 0 0 0 2.5-.6 5.4 5.4 0 0 0 3.3-5c0-3.2-2.7-3.5-4.5-3.5a18.4 18.4 0 0 0-3.3.3ZM67.3 22.9c-.6.5-.2 1.6-.4 2.9l-.1.5a2 2 0 0 1-2.2 1.8 1.4 1.4 0 0 1-1.6-1.7l.1-.3 1.2-5.8 2.6-14.4.2-2c0-.9.1-1.9 1-1.9a5 5 0 0 0 1.3-.2 1.2 1.2 0 0 1 1.5 1.5L69.6 10l-1.6 9a25.9 25.9 0 0 0 7.1-8.3l.2-.5c.4-1 1-2 2.2-2h.4c1 0 1.9 1 1.4 1.7a45.7 45.7 0 0 1-5.6 7.1 17.8 17.8 0 0 0 1 3.5c1.3 4 2.8 5.4 4.2 6.6a.7.7 0 0 1-.4 1.3h-.3a4 4 0 0 1-3.4-1.5c-1.2-1.5-2.2-2.7-3.6-7.4ZM86.4 19.2a67.9 67.9 0 0 0-1.1 7.3 2 2 0 0 1-2.1 1.7h-.3a1.4 1.4 0 0 1-1.3-1.8l.7-3.6.7-3.7a58.3 58.3 0 0 0 1.2-8.8c0-.9.2-1.9 1-2 .6 0 1 0 1.5-.2A1.3 1.3 0 0 1 88 9.7l-.7 3.4Zm3-16.6c0 1.2-1 3.1-2.6 3.1A1.8 1.8 0 0 1 85 3.8c0-1 .8-3 2.6-3a1.7 1.7 0 0 1 1.8 1.8ZM92.3 15a27.2 27.2 0 0 0 .6-4.9V10c0-.9.3-1.8 1-1.9a5.8 5.8 0 0 0 1.4-.2 1.3 1.3 0 0 1 1.5 1.5c-.1.7-.6 3.2-1 4.5.8-1 1.7-3.6 2.8-4.5a8.3 8.3 0 0 1 5.2-1.9c2 0 4.8.8 4.8 4a20.6 20.6 0 0 1-.4 3.2l-1 5.2a60 60 0 0 0-.8 6.5 2 2 0 0 1-2.1 1.9h-.3a1.4 1.4 0 0 1-1.4-1.6l1.4-6.7.4-2.5c.9-5 1.2-7-2.4-7a6.6 6.6 0 0 0-4.8 2.6 13.4 13.4 0 0 0-2.1 6.4l-.7 4.4a16.6 16.6 0 0 0-.3 2.7 2 2 0 0 1-2.1 1.7h-.3a1.4 1.4 0 0 1-1.5-1.6 25.4 25.4 0 0 0 .9-4.4ZM126.5 25.1c-1 5.4-1.7 9.5-7 11.5a19.3 19.3 0 0 1-8.8.8 1.3 1.3 0 0 1-1-1.9 1.8 1.8 0 0 1 2.3-.9 8 8 0 0 0 2.5.3 7.5 7.5 0 0 0 5.7-2.2c1.8-1.7 2.5-5.5 3.6-10.8-1 1.5-3.5 6.7-7.2 6.7a5.2 5.2 0 0 1-4.6-2.5 7.5 7.5 0 0 1-1-4c0-6 4.2-14.7 12.2-14.7a10 10 0 0 1 4.2 1 6.9 6.9 0 0 0 .8-.3c.8-.3 1.5.6 1.3 1.5a57.5 57.5 0 0 0-1.2 5.8Zm-4-15.2c-6.5 0-7.8 8-7.8 11a5.8 5.8 0 0 0 .7 3.2 3 3 0 0 0 2.7 1.4 5.4 5.4 0 0 0 4.3-2.6c1.4-2.2 2-5.1 3.4-12.2a5.8 5.8 0 0 0-3.2-.8ZM135 18.8c-1-.6-3-1.8-3-4.4a6.7 6.7 0 0 1 3-5.3 10.6 10.6 0 0 1 6-1.7 8.3 8.3 0 0 1 2.4.3 1.6 1.6 0 0 1 1 2.1 1.5 1.5 0 0 1-2.1.6 4.8 4.8 0 0 0-2.2-.4c-2.8 0-4.4 1.8-4.4 3.3s1.4 2.4 2.8 3.2l1.9 1.2a4.5 4.5 0 0 1 2.7 4 6.5 6.5 0 0 1-2.9 5.4 10.4 10.4 0 0 1-6.3 1.6 10.6 10.6 0 0 1-2.7-.3 1.8 1.8 0 0 1-1.3-2.3 1.4 1.4 0 0 1 1.9-.7 7.8 7.8 0 0 0 3.2.6c3 0 4.5-1.6 4.5-3.2 0-1.3-1-2-2.2-2.7Z" transform="translate(0 -.8)"/><path class="cls-2" d="m49.8 6.5-3-.6s-3-2.3-5.5-2.3S35.8 6 35.8 6l-3 .6a10.4 10.4 0 0 1 6.8 9.8 11 11 0 0 1-1.3 5h6a10.7 10.7 0 0 1-1.3-5 10.4 10.4 0 0 1 6.8-9.8Z" transform="translate(0 -.8)"/><path class="cls-2" d="M28.7 7a9.8 9.8 0 0 0-9.7 9.7 9.7 9.7 0 0 0 19.4 0A9.8 9.8 0 0 0 28.7 7Zm0 15.7a6 6 0 1 1 6-6 6.1 6.1 0 0 1-6 6Z" transform="translate(0 -.8)"/><path class="cls-2" d="M24.7 13.6a4.5 4.5 0 0 0 .2 5.7 5.4 5.4 0 0 1 5.4-7 4.6 4.6 0 0 0-5.6 1.3ZM53.9 7a9.8 9.8 0 0 0-9.7 9.7A9.7 9.7 0 1 0 53.9 7Zm0 15.7a6 6 0 1 1 6.1-6 6 6 0 0 1-6.1 6Z" transform="translate(0 -.8)"/><path class="cls-2" d="M52.4 12.3a5.4 5.4 0 0 1 5.4 7 4.5 4.5 0 0 0 .2-5.7 4.7 4.7 0 0 0-5.6-1.3Z" transform="translate(0 -.8)"/><path class="cls-1" d="M38.9 37.6a12.3 12.3 0 0 0 .3 2 .8.8 0 0 1-.7 1H38a.8.8 0 0 1-1-.9v-1.3l-.1-1.6h-4.4l-.8 1.7-.5 1.1a1.4 1.4 0 0 1-1.2.9h-.2c-.4 0-.7-.4-.5-.7l2.1-3.8c.9-1.6 2.7-5 3.6-7a1.8 1.8 0 0 1 1.5-.8h.4a1 1 0 0 1 1.1 1l.2 2.2Zm-5.7-2h3.7l-.3-3.7a21 21 0 0 0-.3-2.3l-1.5 2.7Z" transform="translate(0 -.8)"/><path class="cls-1" d="M42.7 30.6c.3-2 .8-3 1.7-3.6a4.5 4.5 0 0 1 2.3-.8.6.6 0 0 1 .5.8c-.2.4-.6.5-1.1.5-1.2.1-1.6 1.5-2 3.1h1.6a.5.5 0 0 1 .5.6.8.8 0 0 1-.7.5h-1.6l-1 5.7a56 56 0 0 1-.3 1.7c-.3 1.6-1 5.4-4.6 5.5-.4 0-.6-.4-.4-.8s.6-.5 1-.6a2 2 0 0 0 1.3-.7c.7-.8.9-2.3 1.4-4.7l1-6.2H42a.4.4 0 0 1-.4-.6.8.8 0 0 1 .7-.5c.3.1-.1.1.3.1ZM46.8 34a9.1 9.1 0 0 0 .2-2c0-.5.2-1 .6-1a.9.9 0 0 0 .5 0 .6.6 0 0 1 .8.6 21.1 21.1 0 0 0-.5 2.3 8.1 8.1 0 0 1 2-2.8 9.3 9.3 0 0 1 1-.5.5.5 0 0 1 .6.7 1.6 1.6 0 0 1-1.2 1 3.4 3.4 0 0 0-2.3 2.6 28.4 28.4 0 0 0-.8 4.4 1 1 0 0 1-1 .9h-.1a.7.7 0 0 1-.7-.8 3 3 0 0 0 .2-1ZM53.9 36.2a29.9 29.9 0 0 0-.5 3.4 1 1 0 0 1-1 .8h-.1a.7.7 0 0 1-.6-.9l.4-1.7.3-1.7A34.6 34.6 0 0 0 53 32c0-.4 0-.9.5-.9h.7a.6.6 0 0 1 .7.6 11.7 11.7 0 0 0-.3 1.6Zm1.4-7.8c0 .6-.4 1.5-1.2 1.5a.9.9 0 0 1-1-.9c0-.5.5-1.4 1.3-1.4.6 0 .9.2.9.8ZM62.9 30.8a.6.6 0 0 1 .3 1c-.1.3-.6.3-1 .2a2 2 0 0 0-.7 0c-2.4 0-3.8 2.3-3.8 4.8a2.8 2.8 0 0 0 1 2.5 2.8 2.8 0 0 0 1.6.4 4.3 4.3 0 0 0 1.2-.2c.3-.1.4.2.3.5a1.6 1.6 0 0 1-1 .8l-1 .1c-2.5 0-4.1-1.5-4.1-3.9a6 6 0 0 1 6-6.2 2.4 2.4 0 0 1 1.2 0ZM71 31a.6.6 0 0 1 .8.6l-.6 3.1-.3 1.8a19.9 19.9 0 0 0-.4 3.2.8.8 0 0 1-.8.7.8.8 0 0 1-.8-.8l.3-2.3c-.8 1.1-2 3.2-3.6 3.2-1.3 0-2.6-.9-2.6-3a8 8 0 0 1 2.9-6 4.8 4.8 0 0 1 2.9-1 5.3 5.3 0 0 1 1.9.3ZM70 32a4.3 4.3 0 0 0-1.5-.3c-3 0-3.8 3.8-3.8 5.3 0 1.2.4 2.1 1.6 2.1a2.6 2.6 0 0 0 2-1.2 8.7 8.7 0 0 0 1.3-3.5ZM73.8 38.4a.9.9 0 0 1 .9.9 1.4 1.4 0 0 1-1.3 1.4.8.8 0 0 1-1-.9 1.4 1.4 0 0 1 1.4-1.4ZM84 30.8a.6.6 0 0 1 .3 1c-.1.3-.6.3-.9.2a2 2 0 0 0-.8 0c-2.4 0-3.8 2.3-3.8 4.8a2.8 2.8 0 0 0 1.1 2.5 2.8 2.8 0 0 0 1.5.4 4.3 4.3 0 0 0 1.2-.2c.3-.1.4.2.3.5a1.6 1.6 0 0 1-1 .8l-.9.1c-2.6 0-4.2-1.5-4.2-3.9a6 6 0 0 1 6-6.2 2.4 2.4 0 0 1 1.2 0ZM92.3 31.5a3.4 3.4 0 0 1 .9 2.4c0 2.8-1.7 6.8-5.5 6.8a3.8 3.8 0 0 1-2.5-.9 3.4 3.4 0 0 1-1-2.7c0-2.9 1.8-6.5 5.6-6.5a3.5 3.5 0 0 1 2.5 1Zm-1.5.8a1.8 1.8 0 0 0-1.3-.5c-2.8 0-3.5 4.1-3.5 5.5 0 1.7.9 2.3 1.9 2.3 3 0 3.6-4.9 3.6-5.7a3 3 0 0 0-.7-1.6ZM105.2 30.6a1.7 1.7 0 0 1 1.9 1.8 12.7 12.7 0 0 1-.2 1.5l-.5 3-.4 2.6a1 1 0 0 1-1 1h-.1a.7.7 0 0 1-.6-.9l.4-1.6.5-3a12.8 12.8 0 0 0 .2-1.8c0-1-.3-1.2-.7-1.2-1 0-2 .5-2.7 2.4a28.1 28.1 0 0 0-1 5.1 1 1 0 0 1-1 1 .7.7 0 0 1-.7-1l.5-2.7.2-1.2a18.1 18.1 0 0 0 .3-2.4c0-.9-.1-1.2-.8-1.2-1 0-2 .8-2.6 2.3a31.6 31.6 0 0 0-1 5.2 1 1 0 0 1-1 1h-.1a.6.6 0 0 1-.6-.9 16 16 0 0 0 .3-1.6l.8-4.4a13.6 13.6 0 0 0 .2-1.6c0-.4 0-.9.5-1a4.3 4.3 0 0 0 .5 0 .6.6 0 0 1 .8.6 40 40 0 0 0-.4 2.1 20.2 20.2 0 0 1 1.4-2.3 2.7 2.7 0 0 1 1.8-.8c1.9 0 1.9 2.3 1.9 3a8.6 8.6 0 0 1 1.5-2.2 2.2 2.2 0 0 1 1.7-.8Z" transform="translate(0 -.8)"/></svg>