<svg version="1.1" id="Layer_1" xmlns="http://www.w3.org/2000/svg" x="0" y="0" viewBox="0 0 512 211" style="enable-background:new 0 0 512 211" xml:space="preserve"><style>.st0{fill:#144470}.st1{fill:#23ce6b}</style><path class="st0" d="m45.9 104-13.3 14.2.2 41c0 4.8-2.2 7.2-6.7 7.2H6.4c-3.8 0-6.4-2.8-6.4-6.7V9.1c0-5.4 3.2-8 7.4-8.2 6-.2 11.9-.4 17.9 0 4.7.3 7.2 1.6 7.2 8.2v58.2c.1 5.5 41.9-51.3 48.4-60.2 3.2-4.4 7.3-6 12-6.2 6.3-.2 12.6-.1 18.9 0 5.6 0 4.7 2.6 3.8 4-5 7.9-20.4 31.2-48.8 76.6l24.5 32.4c7.8 10.4 15.4 20.8 23.1 31.3 4 5.4 8 10.8 11.8 16.3 1.7 2.5.6 4.9-2.4 4.9-9.9.1-19.8.3-29.7-.1-4.2-.2-7.4-3.3-9.9-7-5.4-8-11-15.8-16.5-23.7L52.8 114c-2-3.2-4.1-6.1-6.9-10zM383.9 59.3c2.2-2 4.4-3.9 6.8-5.8a43 43 0 0 1 24.2-10c6.8-.5 13.6-.7 20.3 1.2a28 28 0 0 1 15.5 10.7 38 38 0 0 1 6.6 22.5c.2 26.6.1 53.2.1 79.8 0 4.1-1.7 5.8-5.4 5.8h-17.9c-4.1 0-5.8-1.8-5.8-6.3V97.5c0-4.4 0-8.9-.6-13.2-.9-5.5-3.9-10-9-11.8a26.5 26.5 0 0 0-27 4.1c-2.5 2-4.7 4.4-6.9 6.8-.7.8-1.1 2.3-1.1 3.4v68.5c0 1.4.1 2.8-.1 4.1-.3 2.3-1.6 3.8-3.9 3.8h-21c-2.3 0-3.9-1.9-4.1-4.4V6.3c0-4.1 1.5-5.4 5.4-5.7 6.2-.4 12.4-.2 18.7-.1 3.7.1 4.7 1.4 4.8 5.4l.1 52.7c-.2.5.1.6.3.7zM183.5 125.5l3.8-10.6 6.5-18.2 5-14.8 4.9-13.4 4.9-13.7c.7-1.9 1.2-3.8 2-5.6 1.4-3 4.1-3.7 6.9-3.8h20.2c4.2.1 4.9 1.8 3.3 6l-6.4 17.1-6.6 17.3-6.1 16.2-6.9 18.3-7.4 20.6-5.3 13.2c-1.7 4.4-3.1 9-4.8 13.4-3.2 8-5.3 16.5-9.8 23.9a36 36 0 0 1-19.4 16.3c-7.8 2.8-15.8 3.2-23.8 2.8-2.2-.1-4.6-.5-6.3-1.8-1.2-.8-1.8-3.5-1.6-5.2.6-5.5 1.7-10.9 2.4-16.4.9-6.2 2.7-6.6 7.2-5.2 14.6 4.9 21-8.5 21.3-16.4.2-3.3-1.2-6.5-2.5-9.7-2.8-6.8-5-13.8-7.6-20.7l-5-13-3.7-10.8L144 99c-1.7-4.7-3.3-9.5-5.1-14.1-1.8-4.6-3.8-9.2-5.5-13.8-1.5-3.9-2.8-7.9-4.2-11.9-1.1-3-2.3-6-3.1-9.2-.9-3.5 0-4.7 3.5-4.8l16.6-.1c1.9 0 3.9.1 5.8.3 2.9.4 4.4 2.7 5.3 5.3 2.4 6.7 4.8 13.5 7 20.3 2 6 3.9 12.2 6 18.1 2.6 7.4 5.5 14.7 8.2 22.1l3.4 10.3c.3 1.5.8 2.5 1.6 4zM290.4 166.6c-8.7.1-15-1.4-22.1-3.3a55.4 55.4 0 0 1-23.8-12.8 6.2 6.2 0 0 1-1-7l8.2-14.6c1.4-2.5 4-3 6.3-1a54 54 0 0 0 37 13.1c4.1-.2 8.6-.9 11.7-4.5 5.3-6.1 4-11.9-3.1-14.7-6.1-2.4-12.8-3.3-19.1-5.2-7.4-2.2-14.9-4.2-22-7.3-6.7-2.9-12-8.4-15-15.7a37 37 0 0 1-1.4-21.6 34 34 0 0 1 17.4-23c10.7-6.1 22-6.4 33.7-5.8 6.5.4 12.9 1.7 18.8 4.3 5.2 2.3 10.1 5.5 15 8.7 2.7 1.7 2.7 4.5.6 8.2l-6.7 12.2c-1.6 2.9-3.2 3.2-5.8 1.5-3.2-2.2-6.3-4.4-9.7-6.2-7.8-4-16.1-5.2-24.5-3.9-4.5.7-8.7 2.8-10.9 7.7-1.3 2.8-.8 6.1 1.7 7.4a58 58 0 0 0 10.3 4.4c4.3 1.3 8.7 2.1 13.1 3.2 4.5 1.1 9 2.1 13.4 3.6 10 3.5 18.8 9 23.3 19.8a41.1 41.1 0 0 1 1.9 19.4c-.8 10.3-6 17.7-13.7 23.5a51 51 0 0 1-23.5 8.7 55 55 0 0 1-10.1.9z"/><path class="st1" d="M477.4 19.3A17.3 17.3 0 0 1 494.7 1c9 0 18.5 8 17.1 21-.8 7.4-7.5 17.6-19.3 16.4a18.1 18.1 0 0 1-15.1-19.1z"/><linearGradient id="SVGID_1_" gradientUnits="userSpaceOnUse" x1="520.7" y1="209.3" x2="496.5" y2="176.7" gradientTransform="matrix(1 0 0 -1 0 212)"><stop offset="0" style="stop-color:#33197e"/><stop offset="1" style="stop-color:#33197e;stop-opacity:0"/></linearGradient><path d="M492.5 38.3c11.9 1.2 18.5-8.9 19.3-16.4.6-5.8-.9-10.6-3.6-14.1a17.6 17.6 0 0 1-15.7 21.8v8.7z" style="opacity:.6;fill:url(#SVGID_1_);enable-background:new"/><path class="st0" d="M509.3 51.3c0-3.5-1.4-4.2-4.4-2.5a19.7 19.7 0 0 1-20.4 0c-2.9-1.6-4.4-1-4.4 2.5v107.3c0 3.1 1.7 4.9 4.6 4.9h19.8c2.9 0 4.6-1.8 4.6-4.9.2-35.8.2-71.5.2-107.3z"/><linearGradient id="SVGID_00000099652649743399742000000012851005821929534865_" gradientUnits="userSpaceOnUse" x1="29.6" y1="106.7" x2="118.3" y2="202.8" gradientTransform="matrix(1 0 0 -1 0 212)"><stop offset="0" style="stop-color:#23ce6b"/><stop offset="1" style="stop-color:#23ce6b;stop-opacity:0"/></linearGradient><path style="fill:url(#SVGID_00000099652649743399742000000012851005821929534865_)" d="M115.7 5a2634 2634 0 0 1-83.1 80.4v32.8l34.3-36.7L115.7 5z"/><path class="st1" d="M32.6 98.9V85.4c24-21.8 52.8-50.2 83.1-80.4L32.6 98.9z"/></svg>