<svg version="1.1" id="Layer_1" xmlns="http://www.w3.org/2000/svg" x="0" y="0" viewBox="0 0 87.9 26.2" style="enable-background:new 0 0 87.9 26.2" xml:space="preserve"><style>.st0{fill:#5ba532}.st1{fill:#1489c8}</style><path class="st0" d="M333.2 375.6c0 .8-.4 1.6-1 2.1-.5.3-.7.9-.5 1.5.2.6.8 1 1.4 1l.7-.2c1.4-.7 3-.1 3.7 1.3s.1 3-1.3 3.7c-.4.2-.9.3-1.4.3a2.9 2.9 0 0 1-2.6-2.4c0-.6-.4-1.2-1-1.4-.6-.2-1.3-.1-1.8.4-.4.4-.7 1-.9 1.5-.5 1.4-2 2.2-3.5 1.8-.5-.2-.9-.4-1.2-.8-.8-.9-.9-2.4-.2-3.4a3 3 0 0 1 3.3-1c.3.2.7.2 1.1.3.6 0 1.1-.4 1.1-1v-.3c-.1-.5-.4-1-.8-1.4-.8-.8-1-2-.5-3.1a2.8 2.8 0 0 1 3.7-1.3c.7.3 1.2.9 1.4 1.6.3.2.3.5.3.8z" transform="translate(-254.6 -372.9)"/><path class="st1" d="m339.6 389.8-1-.2-.2-.1c-.5-.3-1.2-.2-1.6.3-.4.5-.4 1.1 0 1.6l.5.7a2.7 2.7 0 0 1 0 3.9 2.7 2.7 0 0 1-3.9 0 2.7 2.7 0 0 1 0-3.9l.2-.2c.5-.4.7-1 .5-1.6-.3-.6-.9-1-1.5-1l-.5.2c-1 .5-2.1.3-2.9-.3-.9-.7-1.2-1.8-.9-2.8a2.4 2.4 0 0 1 2.2-2c1.5-.3 2.9.7 3.2 2.2v.1c0 .7.5 1.3 1.1 1.6.7.2 1.5-.1 1.9-.7l.6-1.2c.5-1.4 2-2.2 3.4-1.8 1.4.5 2.2 2 1.8 3.4a3 3 0 0 1-2.9 1.8z" transform="translate(-254.6 -372.9)"/><path class="st0" d="m258.2 397 1-3.2 1.1-3.3c.2-.5.2-.5.9-.5.4-.1.7.2.8.5l2.1 6.5c.4-1.7 1-3.4 1.5-5l.5-1.6c0-.3.3-.4.5-.4h.8c.3 0 .3.1.3.4a170 170 0 0 1-3.1 8.5c-1.4 0-1.1.2-1.5-1.1l-1.8-5.6-.1-.4-.3 1.1-1.8 5.4c-.1.3-.4.6-.7.5-.9 0-.9 0-1.2-.8l-2.5-7.6c-.1-.4-.1-.4.3-.4 1.4 0 1.2-.1 1.5 1.2l1.6 5.5.1.3z" transform="translate(-254.6 -372.9)"/><path class="st1" d="m322.7 391.1.5-.4c.8-.7 1.8-.9 2.8-.8 1.4.2 2.4 1.3 2.4 2.7l.1 6.1c0 .2-.1.3-.3.3h-.9c-.3 0-.4-.1-.4-.4v-5.4a2 2 0 0 0-1.6-2.1c-.3 0-.7 0-1 .2a3 3 0 0 0-1.5 1c-.1.1-.2.3-.1.5v5.8c0 .3-.1.5-.4.4-.3 0-.8.1-1.1-.1-.3-.2-.1-.7-.1-1.1v-11.3c0-.3.1-.5.4-.5.4 0 .8-.1 1.1.1s.1.7.1 1.1v3.9zM290.8 391.2c.5-.6 1.2-1 2-1.2a3 3 0 0 1 3.7 1.8c.1.4.2.8.1 1.2v5.6c0 .2-.1.3-.3.3h-.8c-.3 0-.5-.1-.5-.4v-5l-.1-1c-.2-1-1.2-1.6-2.2-1.4l-.4.1a3 3 0 0 0-1.5 1c-.1.1-.2.3-.1.5v5.7c0 .4-.1.5-.5.5h-.9c-.2 0-.2-.1-.2-.2v-12.2c0-.4.1-.5.4-.4h.8c.3 0 .4.1.4.4v4.5l.1.2z" transform="translate(-254.6 -372.9)"/><path class="st0" d="M273.2 390.4a4 4 0 0 0-5.5 1.7l-.1.2c-.4.9-.5 1.8-.4 2.8a4 4 0 0 0 4.1 4.1h.6c1 0 2-.4 2.8-1.1.1-.1.2-.1.2-.3a.8.8 0 0 0-1-.6h-.1c-.4.3-.9.5-1.3.6-1.4.5-3-.2-3.5-1.6l-.1-.4-.1-.8c-.1-.3 0-.4.4-.4h5.4c.3 0 .4-.1.5-.4 0-1.6-.7-3-1.9-3.8zm.1 3.1h-4.5l.4-1.2c.6-1 1.7-1.5 2.8-1.1 1 .2 1.6 1.1 1.6 2.1-.1.1-.1.2-.3.2z" transform="translate(-254.6 -372.9)"/><path class="st1" d="M302.6 390.1a4 4 0 0 0-4.7 1.2 5 5 0 0 0-.8 4.3 3.7 3.7 0 0 0 3 3.2c.8.2 1.6.2 2.3 0 .7-.1 1.4-.5 2-1 .2-.2.2-.3.1-.5-.4-.6-.5-.6-1.1-.2-.8.5-1.8.7-2.8.5a3 3 0 0 1-2.1-3.1c0-.2.2-.2.3-.2h5.5c.3 0 .5-.1.5-.4.2-1.5-.7-3.1-2.2-3.8zm.5 3.4h-4.2c-.3 0-.3-.1-.3-.3a2.5 2.5 0 0 1 2.8-2.1l.3.1c1 .2 1.7 1.1 1.7 2.2l-.3.1zM311.9 398.5v-2.9c0-.9.1-2-.1-3.1-.1-1.3-1-2.4-2.3-2.6-1.5-.3-3 .1-4.1 1.2v.3c.3.7.6.8 1.2.3.6-.4 1.3-.7 2-.7.8 0 1.4.5 1.6 1.2l.1 1.3c0 .3-.1.3-.3.3l-1.6.1c-1 .1-1.9.5-2.7 1-.7.5-1 1.4-.8 2.2a2 2 0 0 0 1.6 1.6 4 4 0 0 0 3.6-.9c.3-.3.3-.3.4.1.2.7.2.8 1 .8.4.2.4.1.4-.2zm-1.6-1.7c-.4.5-1 .9-1.7 1h-1.2c-.7-.1-1.1-.8-1-1.5.1-.4.3-.7.6-.9.8-.4 1.6-.6 2.5-.6.9 0 .9 0 .9.8v.2c-.1.4.1.8-.1 1z" transform="translate(-254.6 -372.9)"/><path class="st0" d="M288.2 392.8c.1-1.4-.9-2.6-2.3-2.9-1.4-.3-2.8.1-3.9 1-.3.3-.3.5-.1.8s.4.4.8.3l.5-.3c.5-.4 1.2-.6 1.8-.5.7 0 1.3.4 1.5 1.1.1.5.2 1 .1 1.5 0 .2-.1.2-.3.2l-1.6.1c-.9.1-1.9.4-2.7.9-.7.5-1.1 1.4-.9 2.2a2 2 0 0 0 1.6 1.7 4 4 0 0 0 3.3-.7l.6-.5.1.6c0 .3.3.6.6.6h.4c.2 0 .3 0 .3-.3.3-1.9.3-3.8.2-5.8zm-1.6 4a3 3 0 0 1-1.5 1c-.4.1-.9.2-1.3.1-.5-.1-.9-.4-1-.9-.1-.5.1-1.1.6-1.4.7-.4 1.5-.6 2.3-.6 1-.1 1-.1 1 1 0 .2.2.6-.1.8z" transform="translate(-254.6 -372.9)"/><path class="st1" d="M316.5 394.4v-2.7c0-.2-.1-.4-.3-.3h-.5c-.5 0-.6-.1-.6-.6 0-.3.1-.4.4-.4 1.1-.1 1.1-.1 1.2-1.2l.2-1.5a1 1 0 0 1 1.1-.5l.1.3v2.4c0 .3.1.4.3.3h1.8c.3 0 .4.1.4.4 0 .8 0 .8-.8.8h-1.4c-.3 0-.4 0-.4.4v5c-.1.6.3 1.1.9 1.1.2 0 .5 0 .7-.2.2-.1.4-.4.6-.2l.5.8c.1.1-.1.2-.1.2-.8.7-2 .8-3 .5a2 2 0 0 1-1.2-1.7l.1-2.9zM313.1 392.5v-6.1c0-.3.1-.5.4-.4.4 0 .8-.1 1.1.1.2.2.1.7.1 1.1v11.3c0 .3-.1.5-.4.4-.4 0-.8.1-1.1-.1s-.1-.7-.1-1.1v-5.2z" transform="translate(-254.6 -372.9)"/><path class="st0" d="M280.4 392.4v6.1c0 .3-.1.4-.4.4h-.8c-.3 0-.4-.1-.4-.4v-12.2c0-.3.1-.4.3-.3.4 0 .9-.2 1.2.1.2.2.1.7.1 1.1v5.2zM275.7 392.5v-6.1c0-.3.1-.4.4-.4.4 0 .9-.2 1.1.1.2.2.1.7.1 1.1v11.3c0 .4-.1.5-.4.4h-.8c-.3 0-.4-.1-.4-.4v-6z" transform="translate(-254.6 -372.9)"/></svg>