<svg version="1.1" id="Layer_1" xmlns="http://www.w3.org/2000/svg" x="0" y="0" viewBox="0 0 2463 1266" style="enable-background:new 0 0 2463 1266" xml:space="preserve"><style>.st0{fill:#004eea}.st1{fill:#fff}</style><path class="st0" d="M1977.3 517h-146.7v114.9h144.7c22.7 0 27.3-3.2 27.3-21.4v-71.4c0-18.8-4.6-22.1-25.3-22.1z"/><path class="st0" d="M2137.6 258.5H328.1a145 145 0 0 0-145 145v605.8h1954.5a145 145 0 0 0 145-145V403.4a145 145 0 0 0-145-144.9zm-661.7 139.8h127.9v127.2h-127.9V398.3zM724.7 753.9c0 73.3-45.4 115.5-130.5 115.5h-259V750.7h242.1c15.6 0 20.1-3.9 20.1-14.9v-22.1c0-9.1-4.5-13-19.5-13h-116c-72 0-126.6-22.1-126.6-105.8v-81.8c0-77.9 51.9-114.9 130.5-114.9h221.3V517H480c-12.3 0-17.5 4.5-17.5 15.6v33.7c0 10.4 5.2 14.9 19.5 14.9h118.1c79.2 0 124.6 30.5 124.6 115.5v57.2zm525.4-228.4v344h-127.9V750.7H951.5v118.8H824.3V750.7h-50.6V631.3h50.6v-233h127.2v233h170.7v-233h127.9v127.2zm176.8 344H1299v-295h127.9v295zm0-344H1299V398.3h127.9v127.2zm176.9 344h-127.9v-295h127.9v295zm526.6-236.9c0 71.4-37 118.1-133.7 118.1h-166.1v118.8H1704V750.7h-51.3V631.9h51.3V398.3h294.7c90.2 0 131.7 35.7 131.7 118.8v115.5z"/><g><path class="st1" d="M1298.7 574.8h127.1V868h-127.1zM1298.7 399.7h127.1v126.5h-127.1zM1474.5 574.8h127.1V868h-127.1zM603.9 581.6H486.5c-14.2 0-19.4-4.5-19.4-14.8v-33.5c0-11 5.2-15.5 17.4-15.5h205.8V399.7h-220c-78.1 0-129.7 36.8-129.7 114.2v81.3c0 83.2 54.2 105.2 125.8 105.2H582c14.8 0 19.4 3.9 19.4 12.9v21.9c0 11-4.5 14.8-20 14.8H340.7v118.1h257.4c84.5 0 129.7-41.9 129.7-114.8v-56.8c0-84.6-45.2-114.9-123.9-114.9zM1122.9 631.3H953.2V399.7H826.8v231.6h-50.4V750h50.4v118.1h126.4V750h169.7v118.1H1250V399.7h-127.1zM1994.1 399.7h-292.9V632h-51v118h51v118.1H1827V750h165.2c96.1 0 132.9-46.4 132.9-117.4V517.7c0-82.5-41.3-118-131-118zm3.9 210.9c0 18.1-4.5 21.3-27.1 21.3H1827V517.7h145.8c20.6 0 25.2 3.2 25.2 21.9v71zM1474.5 399.7h127.1v126.5h-127.1z"/></g></svg>