<svg version="1.1" id="Layer_1" xmlns="http://www.w3.org/2000/svg" x="0" y="0" viewBox="0 0 161 48" style="enable-background:new 0 0 161 48" xml:space="preserve"><style>.st0{fill:#365278}.st1{fill:#d3e6fa}</style><path class="st0" d="M28.4 14.6c-.2-.6-.3-1.3-.1-2l1.1-4.9c.3-1.1 0-1.8-1.1-2.2l-2.4-1.1-.4-.1c-.5-.2-1.1 0-1.6.1l.1.6.3 1.1.2.1h.1c.8.5 2.2.9 2.2 1.5.1 1.5-.3 3-.8 4.4-.1.3-1 .7-1.5.7-2.4-.2-4.8-.8-7.2-.8-3.4.1-6.8.5-10.2.9-1.5.2-2.3 0-2.6-1.7-.1-1.2-.5-2.4-.9-3.8C7.3 5.9 11.1 4.3 15 2.9h.1a2 2 0 0 1 1.8.2c1.2.3 2 .8 2.8 1.2 1 .6 1.6 1.1 2.2.9.2-.1.4-.3.6-.8-.3-.5-.4-1.4-.9-1.6l-5-2.2c-.5-.2-1.2-.2-1.7 0-4 1.5-7.8 3.2-11.6 4.8-1.5.6-1.9 1.7-1.5 3.2l.4 1.9c.5 2.3 1.3 4.4-.2 6.8-.8 1.3-.7 3.1-1.1 4.7v6.6l1.2 5.7c.7 3 3.2 5 6.4 4.9l6.7-.6c1.1 0 2.2.3 3.3.4l5.1.2c2.9-.1 4.4-2.1 5-4.4a31 31 0 0 0-.2-20.2zm-21.3.3c2.7-.3 5.4-.9 8.1-1 2.3-.1 4.5.5 6.8.7l1.8.2c2.7.4 2.7.4 2.4 3.3H4.7c-.4-2.5 0-2.9 2.4-3.2zm15 5.9c1.3 0 2 .5 1.9 2-.1 2.8-.5 5.5-2.8 7.6a8.4 8.4 0 0 1-10.2.7c-3.2-2-4.8-6-3.6-9.4.2-.5 1.2-.9 1.8-1h6.6l6.3.1zm5.6 1.2c-.3 4-.3 8-.9 11.9-.4 2.8-2.2 3.8-5 3.4a43 43 0 0 0-12.4 0c-3.2.4-5.1-1-5.5-4.5-.4-3.4-.3-6.9-.4-10.4l.1-.7.9-.9c.2.4.5.7.5 1.1.2 1.9 0 3.9.4 5.6 1 3.8 3.7 6.2 7.5 7.1 4.3 1.1 8.1 0 10.9-3.6 1.9-2.4 2.8-5.2 2.7-8.3v-2.2l.7-.1c.2.7.5 1.1.5 1.6z"/><path class="st1" d="M27.3 20.6c.1.5.4.9.4 1.4-.3 4-.3 8-.9 11.9-.4 2.8-2.2 3.8-5 3.4a43 43 0 0 0-12.4 0c-3.2.4-5.1-1-5.5-4.5-.4-3.4-.3-6.9-.4-10.4l.1-.7.9-.9c.2.4.5.7.5 1.1.2 1.9 0 3.9.4 5.6 1 3.8 3.7 6.2 7.5 7.1 4.3 1.1 8.1 0 10.9-3.6 1.9-2.4 2.8-5.2 2.7-8.3v-2.2c.3.2.5.1.8.1zM4.7 18.3c-.3-2.7 0-3.1 2.5-3.3 2.7-.3 5.4-.9 8.1-1 2.3-.1 4.5.5 6.8.7l1.8.2c2.7.4 2.7.4 2.4 3.3l-21.6.1z"/><path class="st0" d="M17.2 6.9h1.1c.2 0 .4.2.4.4v.8c0 .2-.2.4-.4.4h-1.1c-.2 0-.4.2-.4.4v1.4c0 .2-.2.4-.4.4h-1a.4.4 0 0 1-.4-.4V9c0-.2-.2-.4-.4-.4h-1.1a.4.4 0 0 1-.4-.4v-.8c0-.2.2-.4.4-.4h1.1c.2 0 .4-.2.4-.4V5.2c0-.2.2-.4.4-.4h1c.2 0 .4.2.4.4v1.3c-.1.3.1.4.4.4z"/><path d="M20.9 5.2c.6.3 1.3 0 1.6-.6s0-1.3-.6-1.6l-1 2.2zm-4.7-3.7.5-1.1-.5 1.1zm-10.7 12L4.1 7.6l-2.4.6 1.5 5.9 2.3-.6zM3.9 7.9l12-5.3-1-2.2-12 5.3 1 2.2zm11.8-5.3L21 5.2 22 3 16.7.4l-1 2.2zm.2 0h-.2L16.8.4a2 2 0 0 0-1.8 0l.9 2.2zm-11.8 5c0 .1 0 .3-.2.3l-1-2.2a2 2 0 0 0-1.2 2.5l2.4-.6z" style="fill:#34517c"/><path d="m24.4 4.9 4 2.1-1.3 6.9" style="fill:none;stroke:#34517c;stroke-width:2.2187;stroke-linecap:round;stroke-linejoin:round"/><path d="M10.5 26.2h1l.3-.6.5 1.5 1.6-3.6.5 5.5h.6l.8-2.5h.8l.3-1 .2.4.4-1.1.9 1.4h2.7" style="fill:none;stroke:#30517a;stroke-width:.6369;stroke-linecap:round;stroke-linejoin:round"/><path d="M2.9 19.3c-3 0-1.2 16.9.5 14.4" style="fill:none;stroke:#34517c;stroke-width:1.1677"/><path d="M58.6 16.2a7.9 7.9 0 0 0-5.9-2.8c-1.5 0-2.8.3-4 .8a7.3 7.3 0 0 0-3 2.2 10.5 10.5 0 0 0-2.7 7.2 10.8 10.8 0 0 0 2.7 7.5c.9.9 1.9 1.7 3 2.2 1.2.5 2.5.8 4 .8 1.2 0 2.3-.3 3.3-.8a9 9 0 0 0 3-2.6l4.2 3c-1.3 1.8-2.8 3-4.7 3.9a17.4 17.4 0 0 1-12 .2 13.5 13.5 0 0 1-7.8-7.7 17.5 17.5 0 0 1 0-12.3 13.3 13.3 0 0 1 7.8-7.8 17 17 0 0 1 6.1-1.1c1.9 0 3.7.3 5.3 1 1.7.7 3.2 1.8 4.6 3.5l-3.9 2.8zm7.6-8.6H71V38h-4.8V7.6zm22.3 27.7h-.1a6.6 6.6 0 0 1-2.6 2.4c-1.1.5-2.2.7-3.5.7-.9 0-1.8-.1-2.6-.4-.8-.2-1.6-.6-2.2-1.1a6.9 6.9 0 0 1-1.6-1.8c-.4-.7-.6-1.6-.6-2.5a5.4 5.4 0 0 1 2.1-4.4c.6-.5 1.4-.9 2.2-1.2a11 11 0 0 1 2.6-.6l2.7-.3 2.6-.1h1.2v-.5c0-1.2-.4-2.1-1.2-2.7-.8-.6-1.9-.9-3.2-.9-1 0-2 .2-2.8.6-.9.3-1.6.8-2.3 1.4l-2.5-2.5a9.8 9.8 0 0 1 3.7-2.4 13.3 13.3 0 0 1 8-.2c.9.3 1.7.7 2.3 1.2.6.5 1.1 1 1.4 1.7.3.6.6 1.2.7 1.9.2.6.3 1.3.3 1.9V38h-4.3v-2.7zm-.2-5.9h-1l-2.2.1-2.4.4a5 5 0 0 0-1.8.9 2 2 0 0 0-.8 1.6c0 .5.1.8.3 1.2l.8.8c.3.3.7.4 1.1.5l1.2.1c1.7 0 2.9-.4 3.7-1.2.8-.8 1.2-1.9 1.2-3.3v-1.1zm11.5-6.6h-4v-4.1h4V16c0-1.3.1-2.5.3-3.6.2-1.1.5-2 1-2.8.5-.8 1.3-1.4 2.2-1.8a13.9 13.9 0 0 1 6.7-.3l-.3 4.1-1-.2-1-.1c-.7 0-1.2.1-1.6.3s-.7.5-1 .9c-.2.3-.4.8-.4 1.2l-.1 1.5v3.5h4.5v4.1h-4.5V38h-4.8V22.8zm12.4-4.1h4.8V38h-4.8V18.7zm-.7-6.5c0-.8.3-1.4.8-2a3 3 0 0 1 2.2-.9c.9 0 1.6.3 2.2.8.6.5.9 1.2.9 2s-.3 1.5-.9 2.1c-.6.5-1.3.8-2.2.8-.9 0-1.6-.3-2.2-.8a3 3 0 0 1-.8-2zm7.7 6.5h5.3l5.4 13.4h.1l4.8-13.4h5l-9.1 23.4a9 9 0 0 1-1.2 2.4 6 6 0 0 1-1.4 1.7c-.6.5-1.2.8-2 1-.7.2-1.7.4-2.7.4a15 15 0 0 1-3.7-.5l.6-4.3 1.2.3 1.3.2a6 6 0 0 0 1.5-.2l1-.5c.3-.2.5-.5.7-.9l.6-1.3.9-2.3-8.3-19.4zm35.5 16.6h-.1a6.6 6.6 0 0 1-2.6 2.4c-1.1.5-2.2.7-3.5.7-.9 0-1.8-.1-2.6-.4-.8-.2-1.6-.6-2.2-1.1a6.9 6.9 0 0 1-1.6-1.8c-.4-.7-.6-1.6-.6-2.5a5.4 5.4 0 0 1 2.1-4.4c.6-.5 1.4-.9 2.2-1.2a11 11 0 0 1 2.6-.6l2.7-.3 2.6-.1h1.2v-.5c0-1.2-.4-2.1-1.2-2.7-.8-.6-1.9-.9-3.2-.9-1 0-2 .2-2.8.6-.9.3-1.6.8-2.3 1.4l-2.5-2.5a9.8 9.8 0 0 1 3.7-2.4 13.3 13.3 0 0 1 8-.2c.9.3 1.7.7 2.3 1.2.6.5 1.1 1 1.4 1.7.3.6.6 1.2.7 1.9.2.6.3 1.3.3 1.9V38H155v-2.7zm-.3-5.9h-1l-2.2.1-2.4.4a5 5 0 0 0-1.8.9 2 2 0 0 0-.8 1.6c0 .5.1.8.3 1.2l.8.8c.3.3.7.4 1.1.5l1.2.1c1.7 0 2.9-.4 3.7-1.2.8-.8 1.2-1.9 1.2-3.3v-1.1z" style="fill:#31517a"/></svg>