<svg data-name="Layer 1" xmlns="http://www.w3.org/2000/svg" viewBox="0 0 1577.3 447"><path d="M905.8 561.5a107.1 107.1 0 0 0 25 26.9q15 11.4 40.4 27.1 27.7 17.4 43.8 30A114 114 0 0 1 1042 676q11.2 18.2 11.2 42.7 0 27.7-14.4 49.5t-40.8 34q-26.3 12.2-60 12.2a195.2 195.2 0 0 1-47-6q-24.1-6-36.6-14.7-5-3.2-5.5-10.3l-3.2-82.6v-.6c0-1.4.9-2.2 2.7-2.4s2.9.5 3.3 1.9q17.9 45.1 41 74t58.9 28.7q23.3 0 39-12.8t15.8-42.6q0-24-10.5-41.9a104.2 104.2 0 0 0-26.1-29.9q-15.5-12-42.1-29.3-26.1-16.9-40.8-28.6a106.9 106.9 0 0 1-25-28.8q-10.3-17-10.3-40 0-28.2 15.7-47.8t41-29a148.8 148.8 0 0 1 53-9.6 195.7 195.7 0 0 1 37 3.6q18.4 3.5 31 9 8.1 3.2 8.1 10.3l1.6 73.9c0 1-1 1.8-3 2.2s-3.1 0-3.5-1.1a239.9 239.9 0 0 0-29-60.1q-18.3-26.9-54.6-26.9-24.4 0-38.8 14.2t-14.4 38.6q0 20.1 10 35.6Zm323.6 211.7c1 0 2 .7 3 2.1s.8 2.6-.3 3.3q-20.1 19-38 27.4a88.2 88.2 0 0 1-38 8.5q-23.4 0-39.4-11.2t-16-37.2V643.3q0-18-5.7-24t-22-6q-.5 0-1.3-1.3a5.9 5.9 0 0 1 0-6c.5-1 1-1.4 1.3-1.4q51-2.1 64.1-44 1.1-2.1 4.6-2.1c2.4 0 3.5.7 3.5 2.1v43q25.6-.6 72.3-5.5c.7 0 1.5 1.4 2.4 4.1a28.1 28.1 0 0 1 1.4 9 26.8 26.8 0 0 1-2 9.8q-1.8 4.9-4 4.3-30.4-7-70-8.6v131.5q0 21.2 10.5 31.2t29.6 10q22.9 0 43-15.7Zm213.8.5c.7 0 1.5.7 2.4 2.2s1 2.5.3 3.2q-20.1 18.5-40.2 27a111.2 111.2 0 0 1-43.5 8.4q-33 0-57.3-14.7a99.3 99.3 0 0 1-36.9-38.6 108 108 0 0 1-12.8-51.6 113 113 0 0 1 15.8-58.7 114.8 114.8 0 0 1 43.2-42.2q27.4-15.4 61-15.5 32.6 0 50.6 15.8t17.9 46.8q0 15.7-6.5 15.7l-132.5.6a145.7 145.7 0 0 0-.6 14.6q0 47.9 22 75.9t62.8 28q15.2 0 25.5-3.6t27.7-12.7Zm-120.3-154q-12.8 15.4-17.1 42.6l86.9-1.6q-1.1-56.6-37-56.6-20 0-32.8 15.5Zm355.6 159c1.4 0 2.3.7 2.7 2.3a2.9 2.9 0 0 1-1.6 3.6l-56 26.6a10.8 10.8 0 0 1-4.9 1.1q-8.1 0-15.5-9.5t-9.5-25.3l-25 17.4q-13 9.3-23.6 13a69.6 69.6 0 0 1-23.6 3.9q-22.3 0-34-10.6t-11.7-28q0-14.7 7.9-24a58.4 58.4 0 0 1 20-15q12.3-5.7 36.2-14.4l52.7-19.5v-32.6q0-33.7-6.8-49.2t-21.4-15.5q-18 0-25.8 13.3a71.5 71.5 0 0 0-9.5 29.6q-3.2 27.8-27.7 27.8-12 0-17.6-5.5a18 18 0 0 1-5.7-13.6q0-15.2 18.2-29.6t44-23.4q25.7-9 45.3-9 23.4 0 37.2 14.7t13.8 44v97.9q0 16.8 5.5 25.5a17.5 17.5 0 0 0 15.7 8.7q8.2 0 19.6-4.9Zm-85.8-9.9v-59.2l-32.6 13.6q-14.1 5.4-23.1 12.7t-9 21q0 13 8.4 20.9a28.7 28.7 0 0 0 20.4 7.9q9.8 0 20.6-6.6Zm267.5-163.7q11.5 8.1 11.5 19.5 0 10.4-6.3 16.9t-17.1 6.5a21.1 21.1 0 0 1-11.7-3 49.5 49.5 0 0 1-9.5-8.4 55.2 55.2 0 0 0-8.7-7.4 16.7 16.7 0 0 0-9.2-2.4q-6 0-12.8 4.6t-20.9 19.3v117.4q0 15.2 4.4 23.1t14.6 11.1q10.3 3.3 30.4 3.3c1.5 0 2.2 1.1 2.2 3.3s-.7 3.2-2.2 3.2q-17.9 0-28.7-.5l-43-.6-31.5.6q-7.6.5-21.1.5c-1.1 0-1.7-1-1.7-3.2s.6-3.3 1.7-3.3q18.4 0 24.4-7.6t6-29.9V664.3q0-17.4-4-25.5t-13.4-8.2q-8.1 0-27.1 8.2h-.6c-1.4 0-2.5-1-3.2-2.7s-.6-3 .5-3.3l71.1-34.8a23.4 23.4 0 0 1 3.8-1q5.5 0 10.9 11.6t6.5 30.7q21.2-23.9 35.3-33.1t25.5-9.3q12.5 0 24 8.2Zm75.7 49.6q11.7 11.4 34 23.9 19.5 10.9 30 18a66.3 66.3 0 0 1 18.5 19q8 12 8 28.7a66.6 66.6 0 0 1-9.3 34.3q-9.3 15.7-27.5 25.5t-43.1 9.8a103.5 103.5 0 0 1-54.9-15.2c-2.2-2.2-3.2-4.4-3.2-6.5l-1.1-50c0-1.1 1-1.8 3-2s3.1.1 3.5.9q9.2 27.1 28 44.5t40 17.4q13.5 0 21.1-7t7.6-21.2q0-20.7-12-33t-34.8-24.1q-18.4-9.8-28.7-16.6a59.6 59.6 0 0 1-17.7-18.5q-7.3-11.6-7.3-29 0-31 22.5-46.2t54.6-15.2a125.8 125.8 0 0 1 43.5 8.1q4.9 2.2 4.9 6 0 12.5-.6 19.6l-.5 26c0 1.2-1.1 1.7-3.3 1.7s-3.2-.5-3.2-1.6q0-10.9-8.7-22.6a70 70 0 0 0-22.3-19.3 56.1 56.1 0 0 0-27.7-7.6q-25 0-25 24 0 16.8 11.7 28.2Z" transform="translate(-449 -410)" style="fill-rule:evenodd;fill:#4a4a4a"/><path d="M550.8 641.3a50.8 50.8 0 1 1-26.4-52l63.3-90.2a50.8 50.8 0 1 1 12.6 8.2l-63.8 91a50.3 50.3 0 0 1 14.2 28h142a50.7 50.7 0 1 1 30 53.3L657.6 770a50.8 50.8 0 1 1-12.1-8.9l64.4-89.5a50.2 50.2 0 0 1-17-30.3Z" transform="translate(-449 -410)" style="fill:#f05042;fill-rule:evenodd"/></svg>